<svg xmlns="http://www.w3.org/2000/svg" width="24" height="24" viewBox="0 0 24 24">
    <path fill="#000" fill-rule="nonzero" d="M21.587 11.486a9.552 9.552 0 0 0-1.888-5.22c-.345.37-.714.72-1.104 1.043a15.788 15.788 0 0 1-3.975 2.412c.2.42.384.827.546 1.211v.004c.045.107.09.215.132.324 1.816-.204 3.732-.13 5.588.12.247.034.48.07.7.106zm-11.262-8.94a55.397 55.397 0 0 1 3.23 5.124c1.468-.578 2.681-1.308 3.658-2.12.339-.28.658-.582.955-.906A9.562 9.562 0 0 0 12 2.4c-.562 0-1.122.048-1.675.145v.001zm-7.621 7.05c.817-.02 1.634-.07 2.448-.147a37.836 37.836 0 0 0 5.834-.987 65.238 65.238 0 0 0-3.24-5.072 9.622 9.622 0 0 0-5.042 6.206zm1.836 8.446a17.128 17.128 0 0 1 1.89-2.279c1.744-1.788 3.804-3.18 6.187-3.948l.074-.021a28.738 28.738 0 0 0-.571-1.194c-2.203.642-4.524 1.042-6.836 1.25-1.128.102-2.14.146-2.884.154a9.56 9.56 0 0 0 2.14 6.038zm11.066 2.856a43.136 43.136 0 0 0-1.958-6.85c-2.403.872-4.317 2.147-5.796 3.669a11.724 11.724 0 0 0-1.58 1.986A9.557 9.557 0 0 0 12 21.6a9.573 9.573 0 0 0 3.606-.7v-.002zm2.248-1.29a9.598 9.598 0 0 0 3.584-5.844 14.649 14.649 0 0 0-1.494-.283 14.428 14.428 0 0 0-3.816-.04 47.242 47.242 0 0 1 1.726 6.168v-.001zM12 24C5.372 24 0 18.628 0 12S5.372 0 12 0s12 5.372 12 12-5.372 12-12 12z"/>
</svg>
