<svg xmlns="http://www.w3.org/2000/svg" width="64" height="64" viewBox="0 0 64 64">
    <g fill="none" fill-rule="evenodd">
        <circle cx="32" cy="32" r="32" fill="#42A1FF"/>
        <path fill="#FFF" fill-rule="nonzero" d="M26.036 38.588l2.73-4.706H17.933v4.706h8.103zm4.89 0h18.48c.263 0 .476.21.476.47v2.824c0 .26-.213.47-.477.47h-34.81a.474.474 0 0 1-.477-.47V22.118c0-.26.213-.47.477-.47h21.269l2.155-3.715h-17.57a.474.474 0 0 1-.477-.471v-2.874c0-.26.214-.47.477-.47h23.716c.263 0 .477.21.477.47a.466.466 0 0 1-.063.233l-3.916 6.826h8.742c.264 0 .477.21.477.47v2.824c0 .26-.213.47-.477.47H17.933v4.707H30.95l1.365-2.353h4.832l-6.221 10.823zm-3.516 6.118l-.783 1.361h17.4c.264 0 .478.211.478.471v2.874c0 .26-.214.47-.477.47H20.312a.474.474 0 0 1-.477-.47c0-.082.022-.162.063-.233l1.66-2.874a.47.47 0 0 1 .02-.031l.909-1.568h4.923zm11.163-14.588h10.832c.264 0 .477.21.477.47v2.824c0 .26-.213.47-.477.47H36.41l2.164-3.764z"/>
    </g>
</svg>
